<svg width="1080" height="1080" fill="none" xmlns="http://www.w3.org/2000/svg"><g clip-path="url(#clip0)"><path opacity=".7" d="M790.607 426.427c-68.165-27.94-117.416-71.893-192.369-223.257-105.827-213.85-350.071-58.107-356.385 100.872-6.313 158.978 107.193 178.596 59.556 441.908-64.945 358.58 386.872 198.981 551.741 108.823 196.63-107.592 243.75-302.585-62.543-428.346z" fill="#DAF2F4"/><ellipse opacity=".1" cx="343.5" cy="946.5" rx="181.5" ry="21.5" fill="#6E7B91"/><path opacity=".3" d="M541.138 200.54a3.703 3.703 0 113.703-3.703 3.718 3.718 0 01-3.703 3.703z" fill="url(#paint0_radial)"/><path d="M541.137 193.133a3.705 3.705 0 013.632 4.426 3.704 3.704 0 11-3.632-4.426zm0-.091a3.803 3.803 0 00-3.516 2.352 3.8 3.8 0 00.83 4.148 3.797 3.797 0 004.15.818 3.807 3.807 0 00-1.464-7.318z" fill="url(#paint1_linear)"/><path d="M537.719 196.837a3.412 3.412 0 012.103-3.148 3.412 3.412 0 013.714.739 3.407 3.407 0 11-5.817 2.409z" fill="url(#paint2_radial)"/><ellipse opacity=".1" cx="590.5" cy="895" rx="229.5" ry="24" fill="#6E7B91"/><rect x="413.554" y="185.599" width="353.71" height="711.549" rx="54.531" fill="#1A2437"/><rect x="435.404" y="206.084" width="310.586" height="668.884" rx="29.744" fill="#F5F8F9"/><path d="M435.427 233.716c0-15.378 12.466-27.843 27.843-27.843h254.901c15.377 0 27.843 12.465 27.843 27.843v10.311H435.427v-10.311z" fill="#2498A8"/><path d="M746.113 243.667H435.427v43.606h310.686v-43.606z" fill="#2CC3D5"/><path d="M727.563 265.29l4.721-4.733a.759.759 0 00-.554-1.229.757.757 0 00-.515.169l-4.724 4.721-4.724-4.721a.758.758 0 10-1.069 1.06l4.721 4.724-4.721 4.733a.757.757 0 001.069 1.068l4.724-4.723 4.724 4.723a.747.747 0 00.952.094.755.755 0 00.117-1.162l-4.721-4.724zm-274.114 5.668a.525.525 0 01-.399-.188l-3.648-4.346a1.062 1.062 0 010-1.365l3.648-4.345a.534.534 0 01.735-.053.53.53 0 01.077.733l-3.648 4.348 3.642 4.347a.529.529 0 01-.407.869z" fill="#000"/><path d="M503.715 205.873H676.67v2.714c0 12.943-10.492 23.435-23.434 23.435H527.15c-12.943 0-23.435-10.492-23.435-23.435v-2.714z" fill="#1A2437"/><path opacity=".7" fill-rule="evenodd" clip-rule="evenodd" d="M700.161 222.59a7.781 7.781 0 00-5.428 2.207l-1.651-1.631a10.091 10.091 0 0114.138 0l-1.63 1.631a7.782 7.782 0 00-5.429-2.207zm-10.729-2.313h-2.436v8.917h2.436v-8.917zm-5.925 1.775h2.436v7.142h-2.436v-7.142zm-1.052 1.547h-2.436v5.594h2.436v-5.594zm-3.51 1.611h-2.435v3.983h2.435v-3.983zm17.977 1.795a4.649 4.649 0 016.482 0l1.63-1.651a6.976 6.976 0 00-9.742 0l1.63 1.651zm3.241 1.776c-.39.004-.764.151-1.053.413l-1.651-1.652a3.964 3.964 0 012.704-1.073 3.922 3.922 0 012.683 1.073l-1.651 1.652a1.546 1.546 0 00-1.032-.413zm25.553-7.431h-14.613a.454.454 0 00-.454.454v5.841c0 .251.203.454.454.454h14.613a.454.454 0 00.454-.454v-5.841a.454.454 0 00-.454-.454zm1.259 1.92h.33c.251 0 .454.204.454.454v2.002a.455.455 0 01-.454.455h-.33a.455.455 0 01-.454-.455v-2.002c0-.25.203-.454.454-.454zm-273.943 2.083a1.509 1.509 0 011.032-1.404 1.325 1.325 0 01-.846-1.176 1.464 1.464 0 011.631-1.383 1.34 1.34 0 011.527 1.28 1.325 1.325 0 01-.867 1.217 1.407 1.407 0 011.053 1.342 1.61 1.61 0 01-1.775 1.527c-1.094.021-1.755-.64-1.755-1.403zm2.807 0c0-.64-.433-.95-1.135-1.156a1.135 1.135 0 00-.949 1.094.971.971 0 001.052.991.96.96 0 00.718-.241.948.948 0 00.314-.688zm-1.94-2.622c0 .516.392.805.991.971.218-.053.413-.173.558-.343.144-.171.231-.384.247-.607a.827.827 0 00-.888-.867.822.822 0 00-.838.49.826.826 0 00-.07.336v.02zm5.155.364a.475.475 0 10.673.672.475.475 0 00-.673-.672zm0 2.849a.473.473 0 00.336.81.475.475 0 10-.336-.81zm3.245-.077c.355.215.762.329 1.177.33.908 0 1.176-.578 1.176-1.011 0-.433-.66-1.053-1.362-1.053h-.392v-.536h.392c.516 0 1.176-.248 1.176-.867s-.268-.805-.929-.805c-.371.011-.73.133-1.032.351l-.185-.516c.405-.263.879-.4 1.362-.393 1.032 0 1.507.599 1.507 1.239a1.344 1.344 0 01-.97 1.238 1.362 1.362 0 011.176 1.342c0 .826-.66 1.569-1.919 1.569a2.645 2.645 0 01-1.363-.351l.186-.537zm7.266.908c1.156 0 1.816-.991 1.816-2.766 0-1.672-.66-2.642-1.734-2.642-1.073 0-1.816.991-1.816 2.725s.578 2.683 1.734 2.683zm-1.032-2.728c.007 1.338.419 2.026 1.073 2.026.66 0 1.073-.846 1.073-2.167 0-1.321-.33-2.064-1.073-2.064-.735 0-1.066.808-1.073 2.205z" fill="#F5F8F9"/><path d="M605.259 215.475h-52.29a2.307 2.307 0 000 4.614h52.29a2.307 2.307 0 000-4.614zm24.964 3.26a3.278 3.278 0 01-2.016 3.051 3.282 3.282 0 11-1.243-6.311 3.26 3.26 0 013.259 3.26z" opacity=".2" fill="#F8FBFB"/><path d="M578.817 871.044a.55.55 0 100-1.1.55.55 0 000 1.1z" fill="#DF638D"/><path d="M508.715 259.317h1.748V269.5h-1.979v-6.037l-2.34 4.362H504.7l-2.34-4.304v5.979h-1.979v-10.183h1.776l3.279 6.226 3.279-6.226zm6.771 2.918c1.06 0 1.84.25 2.34.751.511.501.766 1.276.766 2.326v4.188h-2.066v-1.054a1.765 1.765 0 01-.722.867c-.337.202-.732.303-1.184.303-.482 0-.92-.096-1.315-.289a2.346 2.346 0 01-.924-.809 2.096 2.096 0 01-.332-1.155c0-.52.13-.929.39-1.228.269-.299.698-.515 1.285-.65.588-.135 1.392-.202 2.412-.202h.376v-.26c0-.424-.092-.722-.275-.896-.182-.173-.5-.26-.953-.26-.346 0-.732.063-1.155.188a5.653 5.653 0 00-1.214.52l-.577-1.459c.404-.25.9-.457 1.487-.621a5.998 5.998 0 011.661-.26zm-.39 5.879c.424 0 .766-.14 1.026-.419.26-.289.39-.66.39-1.112v-.246h-.246c-.78 0-1.328.063-1.646.188-.308.125-.462.351-.462.679 0 .26.086.477.26.65.182.173.409.26.678.26zm10.196-4.088l-1.227.13c-.607.058-1.035.231-1.286.52-.25.279-.375.655-.375 1.127v3.697h-2.181v-7.092h2.094v1.199c.356-.818 1.093-1.266 2.21-1.343l.635-.043.13 1.805zm8.297 5.474h-2.672l-2.716-3.163v3.163h-2.181v-10.183h2.181v6.125l2.614-3.019h2.6l-2.975 3.38 3.149 3.697zm6.799-3.134h-4.622c.067.568.25.982.549 1.242.308.251.741.376 1.3.376.366 0 .727-.058 1.083-.173a3.68 3.68 0 00.997-.52l.578 1.458a3.93 3.93 0 01-1.272.636 4.944 4.944 0 01-1.487.231c-1.194 0-2.138-.327-2.831-.982-.684-.665-1.026-1.565-1.026-2.701 0-.722.149-1.363.448-1.921a3.222 3.222 0 011.242-1.3c.53-.318 1.132-.477 1.806-.477.991 0 1.776.323 2.354.968.587.645.881 1.521.881 2.629v.534zm-3.178-2.629c-.414 0-.746.135-.996.405-.241.26-.39.64-.448 1.141h2.788c-.029-.511-.159-.896-.39-1.156-.222-.26-.54-.39-.954-.39zm8.283 4.276c.222 0 .453-.015.693-.044l-.115 1.589a6.053 6.053 0 01-.838.058c-1.078 0-1.868-.236-2.369-.708-.491-.472-.736-1.189-.736-2.152v-2.715h-1.344v-1.633h1.344v-2.08h2.181v2.08h1.776v1.633h-1.776v2.701c0 .847.395 1.271 1.184 1.271zm1.657 1.487v-7.092h2.181v7.092h-2.181zm-.072-10.5h2.34v2.036h-2.34V259zm8.372 3.235c.847 0 1.478.25 1.892.751.414.491.621 1.238.621 2.239v4.275h-2.181v-4.174c0-.481-.091-.833-.274-1.054-.174-.222-.448-.332-.824-.332-.452 0-.818.144-1.098.433-.269.289-.404.674-.404 1.155v3.972h-2.181v-7.092h2.123v1.012c.251-.386.573-.679.968-.882a2.995 2.995 0 011.358-.303zm11.378.173v6.327c0 1.146-.328 2.012-.982 2.6-.655.587-1.623.881-2.904.881a7.202 7.202 0 01-1.834-.231 5.52 5.52 0 01-1.531-.65l.578-1.502c.914.5 1.824.751 2.73.751 1.194 0 1.791-.564 1.791-1.69v-.78a2.151 2.151 0 01-.91.867 2.893 2.893 0 01-1.358.317c-.616 0-1.165-.144-1.647-.433a2.994 2.994 0 01-1.112-1.228c-.27-.539-.404-1.16-.404-1.863 0-.703.134-1.319.404-1.849.27-.539.64-.953 1.112-1.242.482-.299 1.031-.448 1.647-.448.491 0 .934.106 1.329.318.404.202.712.486.924.852v-.997h2.167zm-3.785 5.229c.511 0 .906-.164 1.185-.491.289-.327.433-.785.433-1.372 0-.587-.144-1.045-.433-1.372-.279-.337-.674-.506-1.185-.506-.51 0-.91.169-1.198.506-.289.327-.434.785-.434 1.372 0 .578.145 1.035.434 1.372.288.327.688.491 1.198.491z" fill="#fff"/><path fill-rule="evenodd" clip-rule="evenodd" d="M477.771 279.05a13.635 13.635 0 0012.584-8.418 13.628 13.628 0 10-26.222-5.22 13.665 13.665 0 0013.638 13.638z" fill="#FB5A8B"/><path d="M484.398 262.384h0a.637.637 0 00-.489-.227h-12.275l-.004-.018s0 0 0 0c-.203-.943-1.065-1.624-2.046-1.624h-.934a.625.625 0 00-.632.62c0 .344.284.62.632.62h.934c.39 0 .73.271.81.641l1.627 7.521a2.072 2.072 0 001.354 1.505c-.065.178-.101.37-.101.57 0 .935.777 1.692 1.728 1.692s1.727-.757 1.727-1.692c0-.156-.022-.308-.063-.451h2.22a1.638 1.638 0 00-.063.451c0 .935.777 1.692 1.728 1.692s1.727-.757 1.727-1.692c0-.156-.022-.308-.063-.451h.015a.626.626 0 00.632-.62.627.627 0 00-.632-.621h-8.162a.828.828 0 01-.81-.641s0 0 0 0l-.119-.547h9.592a.63.63 0 00.62-.497l.574-2.785a.633.633 0 00.03-.145l.574-2.784a.613.613 0 00-.131-.517zm-8.933 9.608a.458.458 0 01-.463.451.458.458 0 01-.463-.451c0-.247.206-.451.463-.451s.463.204.463.451zm5.549 0a.458.458 0 01-.463.451.458.458 0 01-.463-.451c0-.247.206-.451.463-.451s.463.204.463.451zm-.417-8.594h2.539l-.333 1.617h-2.412l.206-1.617zm-1.845 4.474h-2.389l-.207-1.617h2.802l-.206 1.617zm-2.754-2.857l-.207-1.617h3.532l-.206 1.617h-3.119zm-4.095-1.617h2.614l.206 1.617h-2.47l-.35-1.617zm.968 4.474l-.35-1.617h2.361l.207 1.617h-2.218zm9.343 0h-2.188l.206-1.617h2.315l-.333 1.617z" fill="#fff" stroke="#fff" stroke-width=".169"/><path d="M490.313 260.82a4.514 4.514 0 100-9.028 4.514 4.514 0 000 9.028z" fill="#BED42B" stroke="#2CC3D5" stroke-width="1.071" stroke-miterlimit="10"/><path d="M603.781 507.214c0-7.086-5.745-12.831-12.832-12.831H457.831c-7.086 0-12.831 5.745-12.831 12.831v17.933a4.277 4.277 0 004.277 4.277h141.672c7.087 0 12.832-5.745 12.832-12.831v-9.379zm0-182.383c0-7.086-5.745-12.831-12.832-12.831H457.831c-7.086 0-12.831 5.745-12.831 12.831v17.933a4.277 4.277 0 004.277 4.277h141.672c7.087 0 12.832-5.745 12.832-12.831v-9.379zm0 310.423c0-7.086-5.745-12.831-12.832-12.831H457.831c-7.086 0-12.831 5.745-12.831 12.831v17.933a4.277 4.277 0 004.277 4.277h141.672c7.087 0 12.832-5.745 12.832-12.831v-9.379zm0 47.577c0-7.086-5.745-12.831-12.832-12.831H457.831c-7.086 0-12.831 5.745-12.831 12.831v17.933a4.277 4.277 0 004.277 4.277h141.672c7.087 0 12.832-5.745 12.832-12.831v-9.379z" fill="#D2DFE6"/><path d="M533.194 560.831c0-7.086 5.745-12.831 12.831-12.831h172.54c7.086 0 12.831 5.745 12.831 12.831v38.739a4.277 4.277 0 01-4.277 4.277H546.025c-7.086 0-12.831-5.745-12.831-12.831v-30.185zm0-150c0-7.086 5.745-12.831 12.831-12.831h172.54c7.086 0 12.831 5.745 12.831 12.831v38.739a4.277 4.277 0 01-4.277 4.277H546.025c-7.086 0-12.831-5.745-12.831-12.831v-30.185zm0 322c0-7.086 5.745-12.831 12.831-12.831h172.54c7.086 0 12.831 5.745 12.831 12.831v38.739a4.277 4.277 0 01-4.277 4.277H546.025c-7.086 0-12.831-5.745-12.831-12.831v-30.185z" fill="#DEE8EC"/><path d="M735.916 793.771l5.422-18.434c.93-4.028 2.169-8.675 3.873-14.097 1.549-4.802 5.422-9.914 9.14-13.632 5.576-5.732 8.21-5.731 12.083-8.675a4.73 4.73 0 001.084-.774c.775-.465 1.394-.93 1.859-1.549 3.253-3.563.155-8.985-6.506-8.366-4.957.465-13.013 1.859-26.18 15.337a2.12 2.12 0 00-.465.619c-6.971 8.985-13.322-16.575-14.561-26.18-.775-6.196-7.436-9.914-13.478-7.745l-32.066 15.026c-2.633-.929-5.732-.774-9.295.31-4.647 1.704-7.28 6.661-6.041 11.308l13.012 51.895L648.5 868h82.102l5.314-74.229z" fill="#C18775"/><path d="M799.12 677.28l-25.405 49.726-12.703-3.563-63.823 52.05c-5.422 4.492-13.322 3.718-17.97-1.549l-24.321-28.194s48.952-21.068 58.092-38.572c9.139-17.505-1.394-21.378-1.394-21.378l23.081-26.18 64.443 17.66zm-32.996-101.622s-37.178-8.21-89.538-58.556c-52.205-50.346-76.835-117.112-83.187-116.802-6.506.31-34.39-12.703-87.679 103.015-53.134 115.718-32.221 142.518-21.687 142.363 10.534-.155 82.412-20.293 127.336-15.181C656.293 635.609 713.92 659 713.92 659l52.204-83.342z" fill="#F6A721"/><path d="M845.128 638.707l-12.703 24.166-5.731 10.843c-7.746 14.872-25.87 20.913-41.052 13.942l-79.623-27.729 46.473-105.958 79.623 42.445c15.182 8.055 21.068 26.954 13.013 42.291z" fill="#F6A721"/><path opacity=".4" d="M845.128 638.707l-12.703 24.166-5.731 10.843c-7.746 14.872-25.87 20.913-41.052 13.942l-79.623-27.729 46.473-105.958 79.623 42.445c15.182 8.055 21.068 26.954 13.013 42.291z" fill="#000"/><path d="M510.057 505.484c-28.348 62.739-40.121 118.506-26.334 124.703 13.787 6.196 47.867-39.502 76.215-102.241 28.349-62.739 40.122-118.506 26.335-124.703-13.787-6.196-47.867 39.502-76.216 102.241z" fill="#F6A721"/><path opacity=".5" d="M510.057 505.484c-28.348 62.739-40.121 118.506-26.334 124.703 13.787 6.196 47.867-39.502 76.215-102.241 28.349-62.739 40.122-118.506 26.335-124.703-13.787-6.196-47.867 39.502-76.216 102.241z" fill="#000"/><path d="M851.945 673.562l-21.533-6.816 13.322-25.406L860 651.409l-8.055 22.153z" fill="#52371D"/><path opacity=".6" d="M843.734 641.34l-13.322 25.406 4.338 1.394 10.998-25.56-2.014-1.24z" fill="#000"/><path d="M573.5 495s-33.746-20.422-51.406 23.263C504.435 561.948 538.5 570 538.5 570c13.942-21.687 26.48-46.961 35-75z" fill="#52371D"/><g opacity=".1"><path opacity=".4" d="M662.644 742.187c2.943 5.422 5.887 10.844 10.379 15.027 4.338 4.337 10.379 7.28 16.421 6.661 6.041-.62 11.773-5.732 11.928-11.773 2.943 2.168 7.435.929 9.759-1.704 2.324-2.634 3.253-6.507 3.563-10.225 4.028 2.324 9.449.465 12.083-3.253 2.633-3.718 2.788-8.83 1.549-13.322-1.239-4.492-3.873-8.365-6.351-12.238 3.098.31 6.351.465 8.984-.929 2.789-1.395 4.648-4.957 2.944-7.591-.93-1.549-2.789-2.324-4.493-2.788-4.802-1.549-8.21-2.634-13.167-2.169-1.084 0 2.014 13.167-29.278 31.137-18.434 10.689-24.321 13.167-24.321 13.167z" fill="#000"/></g><path d="M732.973 761.086c0 .155-2.168-.31-5.422-.155-3.408 0-8.055.775-12.702 3.098-4.648 2.169-8.21 5.422-10.224 8.056-2.169 2.633-3.099 4.492-3.253 4.337 0 0 .155-.465.619-1.394a90.183 90.183 0 012.169-3.408c2.014-2.634 5.577-6.042 10.379-8.365 4.802-2.324 9.604-2.943 13.012-2.943 1.704 0 3.099.154 4.028.309l1.394.465z" fill="#BF7D68"/><path d="M664.658 733.822c4.957 4.802 8.52 10.224 13.787 15.026 2.324 2.169 6.197 6.351 9.295 6.971 3.253.619 5.267.155 6.506-2.943 1.084-2.479-.774-5.732-2.169-7.746-3.408-5.267-6.506-9.449-9.139-13.477-1.24-1.859.309-2.324.929-1.394 2.479 2.478 6.042 4.647 8.21 7.435 2.944 3.718 3.563 8.675 11.309 7.126 1.084-.155 2.014-.619 2.943-1.239 2.943-2.169 3.098-6.196 1.859-9.295-.929-2.478-2.633-4.492-4.338-6.506 3.254 3.718 6.971 7.746 12.238 8.055 3.099.31 6.197-1.239 7.436-4.027 1.549-3.563-.62-6.971-2.943-9.76-4.028-4.957-8.365-9.449-13.168-13.477-1.858-1.549-4.027-2.323-6.351-2.323-2.788 0-6.196.464-7.745 2.788-3.099 4.337-2.169 8.055-2.169 8.055s-6.816-3.408-12.238.155c-5.422 3.563-6.816 9.914-6.816 9.914l-7.436 6.662z" fill="#C18775"/><path d="M700.907 704.854c-2.169-2.169-2.633-6.042-.929-9.295 1.084-2.324 2.633-4.492 4.182-4.957 6.506-2.169 34.855 2.788 34.545 8.985-.31 6.506-2.323 9.294-17.66 7.126-2.633-.465-6.971-.93-6.971-.93l-3.717 5.577-9.45-6.506z" fill="#C18775"/><path d="M745.58 846.942c0 15.377-12.466 27.843-27.843 27.843h-255c-15.377 0-27.843-12.466-27.843-27.843V829H745.58v17.942z" fill="#F8FBFB"/><path d="M434.894 829H745.58" stroke="#D2DFE6" stroke-width=".928"/><path fill-rule="evenodd" clip-rule="evenodd" d="M461.602 843.172a9.265 9.265 0 00-9.089 11.074 9.267 9.267 0 1015.641-8.36 9.27 9.27 0 00-6.552-2.714zm0 17.513a8.173 8.173 0 01-5.792-2.409 8 8 0 01-1.494-2.015 8.259 8.259 0 117.309 4.424h-.023z" fill="#2CC3D5"/><path fill-rule="evenodd" clip-rule="evenodd" d="M458.577 851.372a1.012 1.012 0 001.001-1.197 1.011 1.011 0 00-.789-.798 1.006 1.006 0 00-.917 1.695c.186.189.439.297.705.3zm6.198 0a1.008 1.008 0 100-2.015 1.008 1.008 0 000 2.015zm-3.718 5.154a4.804 4.804 0 01-3.475-2.143l-.834.545a5.79 5.79 0 004.17 2.594c.216.012.432.012.648 0a5.793 5.793 0 004.854-2.629l-.846-.544a4.787 4.787 0 01-4.517 2.177z" fill="#2CC3D5"/><path d="M480.557 855.171v-7.849h4.966v.757h-4.064v2.728h3.841v.757h-3.841v2.85h4.064v.757h-4.966zm9.074-5.555c1.299 0 1.949.716 1.949 2.148v3.407h-.902v-3.351c0-.505-.1-.872-.301-1.102-.193-.23-.504-.345-.935-.345-.497 0-.894.152-1.191.456-.297.305-.445.716-.445 1.236v3.106h-.902v-5.422h.89v.891c.179-.334.427-.586.746-.757.32-.178.683-.267 1.091-.267zm5.983 4.91c.164 0 .327-.012.49-.034l-.044.713a3.338 3.338 0 01-.557.044c-.653 0-1.147-.17-1.481-.512-.326-.341-.49-.816-.49-1.425v-2.85h-1.057v-.713h1.057v-1.648h.902v1.648h1.537v.713h-1.537v2.783c0 .854.394 1.281 1.18 1.281zm5.944-1.927h-3.964c.03.631.201 1.11.513 1.437.311.319.753.478 1.325.478.63 0 1.209-.215 1.736-.645l.301.657c-.238.222-.542.4-.913.534-.371.126-.75.189-1.136.189-.846 0-1.514-.248-2.004-.746-.482-.497-.723-1.184-.723-2.059 0-.557.107-1.047.322-1.47.216-.431.516-.765.902-1.002a2.531 2.531 0 011.336-.356c.72 0 1.284.237 1.693.712.408.468.612 1.114.612 1.937v.334zm-2.293-2.282c-.476 0-.858.148-1.147.445-.282.297-.449.717-.501 1.259h3.151c-.015-.55-.153-.969-.412-1.259-.26-.297-.624-.445-1.091-.445zm6.695.078l-.59.056c-.557.052-.962.226-1.214.523-.245.297-.367.664-.367 1.102v3.095h-.902v-5.422h.879v.947c.305-.631.902-.984 1.793-1.058l.323-.022.078.779zm7.608-.635h.902l-3.207 7.415h-.924l.913-2.07-2.293-5.345h.957l1.815 4.432 1.837-4.432zm4.017 5.489c-.512 0-.965-.115-1.358-.345a2.353 2.353 0 01-.902-.98c-.208-.43-.312-.927-.312-1.492 0-.564.104-1.057.312-1.48.215-.431.516-.761.902-.991.393-.23.846-.345 1.358-.345.513 0 .965.115 1.359.345.393.23.694.56.902.991.215.423.322.916.322 1.48 0 .565-.107 1.062-.322 1.492-.208.423-.509.75-.902.98-.394.23-.846.345-1.359.345zm0-.746c.535 0 .943-.174 1.225-.523.29-.356.434-.872.434-1.548 0-.66-.144-1.169-.434-1.525-.289-.364-.698-.545-1.225-.545-.527 0-.935.181-1.224.545-.29.356-.435.865-.435 1.525 0 .668.141 1.181.424 1.537.289.356.701.534 1.235.534zm8.492-4.754v5.422h-.88v-.924c-.17.327-.412.576-.723.746a2.08 2.08 0 01-1.036.256c-.645 0-1.132-.178-1.458-.534-.327-.364-.49-.898-.49-1.603v-3.363h.902v3.34c0 .483.096.839.289 1.069.193.223.497.334.913.334.475 0 .857-.152 1.147-.456.289-.312.434-.72.434-1.225v-3.062h.902zm4.749.646l-.59.056c-.557.052-.961.226-1.214.523-.245.297-.367.664-.367 1.102v3.095h-.902v-5.422h.88v.947c.304-.631.902-.984 1.792-1.058l.323-.022.078.779zm9.757-.779c1.203 0 1.804.716 1.804 2.148v3.407h-.902v-3.362c0-.497-.089-.861-.267-1.091-.171-.23-.449-.345-.835-.345-.453 0-.809.152-1.069.456-.26.305-.39.72-.39 1.247v3.095h-.901v-3.362c0-.505-.09-.868-.268-1.091-.178-.23-.46-.345-.846-.345-.453 0-.809.152-1.069.456-.26.305-.389.72-.389 1.247v3.095h-.902v-5.422h.89v.858c.164-.32.39-.565.68-.735a1.93 1.93 0 011.002-.256c.838 0 1.391.356 1.659 1.068.155-.334.393-.593.712-.779a2.066 2.066 0 011.091-.289zm7.99 2.983h-3.964c.03.631.2 1.11.512 1.437.312.319.753.478 1.325.478.631 0 1.21-.215 1.737-.645l.3.657c-.237.222-.541.4-.913.534a3.505 3.505 0 01-1.135.189c-.846 0-1.514-.248-2.004-.746-.483-.497-.724-1.184-.724-2.059 0-.557.108-1.047.323-1.47.215-.431.516-.765.902-1.002a2.529 2.529 0 011.336-.356c.72 0 1.284.237 1.692.712.408.468.613 1.114.613 1.937v.334zm-2.294-2.282c-.475 0-.857.148-1.147.445-.282.297-.449.717-.501 1.259h3.151c-.015-.55-.152-.969-.412-1.259-.26-.297-.623-.445-1.091-.445zm5.459 4.932c-.913 0-1.636-.233-2.171-.701l.301-.668c.289.23.583.397.879.501.305.096.646.145 1.025.145.401 0 .705-.067.913-.201a.678.678 0 00.323-.601.653.653 0 00-.212-.512c-.141-.126-.375-.227-.701-.301l-.913-.211c-.461-.104-.813-.282-1.058-.535a1.29 1.29 0 01-.367-.935c0-.482.189-.872.567-1.169.379-.297.884-.445 1.515-.445.378 0 .738.063 1.08.189.341.119.627.293.857.523l-.301.657c-.497-.423-1.043-.635-1.636-.635-.379 0-.676.075-.891.223a.684.684 0 00-.312.601c0 .216.063.39.189.524.134.126.346.222.635.289l.924.223c.505.119.88.3 1.125.545.245.238.367.55.367.936 0 .475-.193.853-.579 1.135-.378.282-.898.423-1.559.423zm5.35 0c-.913 0-1.637-.233-2.171-.701l.3-.668c.29.23.583.397.88.501.304.096.646.145 1.024.145.401 0 .705-.067.913-.201a.678.678 0 00.323-.601.652.652 0 00-.211-.512c-.141-.126-.375-.227-.702-.301l-.913-.211c-.46-.104-.813-.282-1.058-.535a1.29 1.29 0 01-.367-.935c0-.482.189-.872.568-1.169.378-.297.883-.445 1.514-.445.379 0 .739.063 1.08.189.341.119.627.293.857.523l-.3.657c-.498-.423-1.043-.635-1.637-.635-.379 0-.675.075-.891.223a.686.686 0 00-.311.601c0 .216.063.39.189.524.133.126.345.222.634.289l.925.223c.504.119.879.3 1.124.545.245.238.368.55.368.936 0 .475-.193.853-.579 1.135-.379.282-.899.423-1.559.423zm5.717-5.633c.69 0 1.202.178 1.536.534.342.349.512.883.512 1.603v3.418h-.879v-.924a1.622 1.622 0 01-.646.746 1.93 1.93 0 01-1.002.256 2.23 2.23 0 01-.969-.211 1.736 1.736 0 01-.69-.59 1.458 1.458 0 01-.256-.835c0-.409.104-.724.312-.947.208-.23.549-.393 1.024-.49.475-.104 1.136-.155 1.982-.155h.245v-.368c0-.453-.093-.779-.279-.98-.185-.208-.486-.311-.901-.311-.624 0-1.244.193-1.86.579l-.3-.657c.282-.201.619-.36 1.013-.479a3.858 3.858 0 011.158-.189zm-.357 4.921c.446 0 .81-.149 1.092-.446.289-.304.434-.694.434-1.169v-.323h-.201c-.653 0-1.15.03-1.492.09-.341.051-.586.144-.734.278-.141.126-.212.315-.212.568 0 .289.104.53.312.723.215.186.482.279.801.279zm8.911-4.788v5.055c0 .809-.208 1.418-.624 1.826-.416.416-1.032.623-1.848.623-.95 0-1.748-.245-2.394-.734l.301-.668c.363.237.705.408 1.024.512.319.104.675.156 1.069.156.519 0 .913-.141 1.18-.424.267-.274.401-.679.401-1.213v-.958a1.692 1.692 0 01-.724.802c-.319.186-.698.278-1.135.278-.476 0-.899-.111-1.27-.334a2.31 2.31 0 01-.857-.946c-.2-.408-.301-.88-.301-1.414 0-.534.101-1.006.301-1.414a2.31 2.31 0 01.857-.946 2.416 2.416 0 011.27-.334c.43 0 .805.092 1.124.278.319.186.56.449.724.79v-.935h.902zm-2.572 4.509c.519 0 .927-.17 1.224-.512.297-.349.446-.827.446-1.436 0-.601-.149-1.073-.446-1.414-.289-.349-.697-.523-1.224-.523s-.943.174-1.247.523c-.297.341-.446.813-.446 1.414 0 .609.149 1.087.446 1.436.304.342.72.512 1.247.512zm8.784-1.659h-3.964c.03.631.2 1.11.512 1.437.312.319.753.478 1.325.478.631 0 1.21-.215 1.737-.645l.3.657c-.237.222-.541.4-.912.534-.372.126-.75.189-1.136.189-.846 0-1.514-.248-2.004-.746-.483-.497-.724-1.184-.724-2.059 0-.557.108-1.047.323-1.47.215-.431.516-.765.902-1.002a2.529 2.529 0 011.336-.356c.72 0 1.284.237 1.692.712.408.468.613 1.114.613 1.937v.334zm-2.294-2.282c-.475 0-.857.148-1.147.445-.282.297-.449.717-.501 1.259h3.151c-.015-.55-.152-.969-.412-1.259-.26-.297-.623-.445-1.091-.445zm9.221-.701c1.299 0 1.948.716 1.948 2.148v3.407h-.902v-3.351c0-.505-.1-.872-.3-1.102-.193-.23-.505-.345-.936-.345-.497 0-.894.152-1.191.456-.297.305-.445.716-.445 1.236v3.106h-.902v-7.849h.902v3.296a1.82 1.82 0 01.734-.746c.32-.171.683-.256 1.092-.256zm8.142 2.983h-3.963c.029.631.2 1.11.512 1.437.312.319.753.478 1.325.478.631 0 1.21-.215 1.737-.645l.3.657c-.237.222-.541.4-.913.534a3.505 3.505 0 01-1.135.189c-.846 0-1.514-.248-2.004-.746-.483-.497-.724-1.184-.724-2.059 0-.557.108-1.047.323-1.47.215-.431.516-.765.902-1.002a2.526 2.526 0 011.336-.356c.72 0 1.284.237 1.692.712.408.468.612 1.114.612 1.937v.334zm-2.293-2.282c-.475 0-.857.148-1.147.445-.282.297-.449.717-.501 1.259h3.151c-.015-.55-.152-.969-.412-1.259-.26-.297-.624-.445-1.091-.445zm6.695.078l-.59.056c-.557.052-.961.226-1.214.523-.245.297-.367.664-.367 1.102v3.095h-.902v-5.422h.88v.947c.304-.631.902-.984 1.792-1.058l.323-.022.078.779zm5.286 2.204h-3.963c.029.631.2 1.11.512 1.437.311.319.753.478 1.325.478.631 0 1.209-.215 1.736-.645l.301.657c-.237.222-.542.4-.913.534-.371.126-.75.189-1.136.189-.846 0-1.514-.248-2.004-.746-.482-.497-.723-1.184-.723-2.059 0-.557.107-1.047.323-1.47.215-.431.515-.765.901-1.002a2.531 2.531 0 011.336-.356c.72 0 1.285.237 1.693.712.408.468.612 1.114.612 1.937v.334zm-2.293-2.282c-.475 0-.858.148-1.147.445-.282.297-.449.717-.501 1.259h3.151c-.015-.55-.152-.969-.412-1.259-.26-.297-.624-.445-1.091-.445z" fill="#738192"/><path d="M348.599 864.049a10.676 10.676 0 01-6.588 9.86 10.673 10.673 0 116.588-9.86z" fill="#BAE6F0"/><path d="M383.118 719.91c40.418 60.692 68.429 134.687 9.47 148.334" stroke="#F3C29F" stroke-width="21.617" stroke-linecap="round" stroke-linejoin="round"/><path d="M383.118 719.91a440.54 440.54 0 0128.71 49.404" stroke="#2CC3D5" stroke-width="24.022" stroke-linecap="round" stroke-linejoin="round"/><path d="M396.597 886.756a2.811 2.811 0 00-.084-1.025l-1.212-3.254c-2.796-7.746-9.732-27.33-9.946-35.841-.364-14.514 1.752-39.384 3.001-47.717-2.339 1.24-4.614 2.955-7.047 2.955h-87.977c-2.442 0-4.949-1.436-7.289-2.675 1.249 8.333 2.703 32.923 2.34 47.437-.215 8.511-7.103 28.095-9.946 35.841l-1.212 3.254a2.79 2.79 0 00-.084 1.025.369.369 0 000 .047c0 4.315 26.678 7.83 59.751 7.886 33.073.056 59.751-3.571 59.751-7.886a.34.34 0 00-.046-.047z" fill="#2CC3D5"/><path d="M296.036 803.226a16.526 16.526 0 01-9.918-3.729l2.172 32.728c-.14-8.016 4.549-27.331 4.549-27.331a7.792 7.792 0 001.547.149c5.593-.261 21.654-1.482 21.654-1.482a703.484 703.484 0 01-20.004-.335z" fill="#C64A79"/><path d="M338.364 801.464l-52.322-2.265 2.424 42.73c1.109-26.623 49.898-40.465 49.898-40.465z" fill="#2AB6C8"/><path d="M397.099 770.022c-4.269-18.336-14.709-61.28-14.709-61.28 0-2.107-12.78-2.852-41.453-3.412v-.14l-4.167.056-4.157-.056v.14c-28.673.56-41.453 1.305-41.453 3.412 0 0-10.44 42.944-14.71 61.28-4.12 17.711 8.035 33.278 19.576 33.278h81.498c11.531.028 23.733-15.604 19.575-33.278z" fill="#2CC3D5"/><path d="M377.85 803.225s-9.797.326-20.004.326c0 0 22.586.178 25.401 11.373.215 1.062.429 2.162.634 3.281.932 5.136 1.771 10.599 1.715 13.982l2.797-33.417c-3.058 2.386-7.15 4.455-10.543 4.455z" fill="#2AB6C8"/><path d="M292.735 720.105c-40.418 60.693-60.245 136.822-9.47 148.343" stroke="#F3C29F" stroke-width="21.617" stroke-linecap="round" stroke-linejoin="round"/><path d="M292.736 720.105a441.424 441.424 0 00-28.71 49.404" stroke="#2CC3D5" stroke-width="24.022" stroke-linecap="round" stroke-linejoin="round"/><path d="M405.135 818.14h-134.38a10.424 10.424 0 00-10.012 7.503 10.425 10.425 0 00-.307 4.429l9.583 65.94a6.065 6.065 0 005.966 5.193h123.883a6.074 6.074 0 006.003-5.193l9.583-65.94a10.425 10.425 0 00-5.981-10.99 10.424 10.424 0 00-4.338-.942z" fill="url(#paint3_linear)"/><path opacity=".8" d="M348.413 859.806a7.708 7.708 0 00-6.31-6.208 22.93 22.93 0 00-4.466-.438c-1.985 0-4.772.261-6.786 1.51-2.516 1.557-3.84 4.586-3.728 8.52.065 2.265.606 5.453 2.796 7.728 1.753 1.864 5.118 2.731 7.728 2.843v2.041a1.248 1.248 0 001.24 1.24h.111c.255-.021.497-.122.69-.289a99.66 99.66 0 003.654-3.244l.578-.522a19.16 19.16 0 002.797-3.001c1.836-2.564 2.451-6.367 1.696-10.18z" fill="#DAE5EA"/><path d="M337.926 897.886l-.643.251-.932-.857 1.575.606z" fill="#564B5E"/><path d="M481.534 841.864a.465.465 0 100-.93.465.465 0 000 .93z" fill="#DF638D"/><path opacity=".6" d="M263.13 848.901s14.225 17.813 36.187 28.142c11.484 5.378 25.168 6.851 39.849 6.571 13.405-.251 30.706-5.332 43.952-11.54 17.71-8.305 29.549-18.242 28.803-17.711l-49.246 43.532-63.722 2.219-32.551-28.739-3.272-22.474z" fill="#DEE8EC"/><path d="M466.331 946.525a61.362 61.362 0 01-16.527 2.367 97.837 97.837 0 01-14.859-.997 197.452 197.452 0 01-27.033-5.957 9.097 9.097 0 013.105-17.832h.121c8.235.684 16.508.783 24.758.299 3.764-.24 7.503-.77 11.186-1.585a32.55 32.55 0 008.864-3.291 14.596 14.596 0 0119.626 5.64 14.598 14.598 0 01-5.214 19.743c-.973.553-2.005.994-3.077 1.314l-.95.299z" fill="#FF6E1D"/><path d="M436.949 935.564c0 6.944-2.079 12.565-4.661 12.565l-8.632-1.175a449.92 449.92 0 01-48.723-2.302 472.093 472.093 0 01-49.116-7.457 377.685 377.685 0 01-37.444-9.704l61.298-25.084c10.058 3.728 20.303 7.01 30.659 9.983a431.698 431.698 0 0045.461 10.506h.084c.168 0 .335.083.503.121h5.91c2.582-.01 4.661 5.611 4.661 12.547z" fill="#121927"/><path d="M219.85 919.54a32.589 32.589 0 008.865 3.291 73.235 73.235 0 0011.186 1.584c8.249.485 16.523.385 24.758-.298h.121a9.1 9.1 0 019.587 7.521 9.098 9.098 0 01-6.492 10.311 197.09 197.09 0 01-27.033 5.957 97.974 97.974 0 01-14.83.988 61.352 61.352 0 01-16.527-2.368l-.933-.27a14.595 14.595 0 01-10.548-13.686 14.598 14.598 0 0121.809-13.03h.037z" fill="#FF6E1D"/><path d="M449.095 897.709l-.783.568a169.192 169.192 0 01-24.581 14.766 237.5 237.5 0 01-24.608 10.468 357.718 357.718 0 01-49.134 13.665 471.412 471.412 0 01-49.106 7.457 450.39 450.39 0 01-48.734 2.303l-8.622 1.174c-2.563 0-4.661-5.593-4.661-12.565 0-6.973 2.07-12.556 4.661-12.556h5.91c.168 0 .326-.094.503-.122h.084a379.608 379.608 0 0013.982-2.675 93.237 93.237 0 002.34-.494c88.35-3.579 144.643-64.393 145.519-65.344a97.66 97.66 0 001.948-1.986 30.4 30.4 0 013.831-3.374c12.641-9.219 29.923-5.789 38.592 7.662s5.509 31.824-7.141 41.053z" fill="#1A2437"/><path d="M312.479 886.643c7.764 3.813 17.31 7.952 25.447 11.242a282.643 282.643 0 01-32.112 5.696c-27.396 3.216-64.263 4.148-69.548.578-.289-.178-.578-.355-.867-.55l-.159-.094a157.98 157.98 0 01-7.662-5.238l-.783-.569c-12.65-9.228-15.847-27.61-7.206-41.061 8.641-13.451 25.905-16.882 38.554-7.644a30.26 30.26 0 013.831 3.374c4.68 4.839 9.763 9.27 15.195 13.246a197.095 197.095 0 0018.233 11.922 277.376 277.376 0 0017.077 9.098z" fill="#1A2437"/><path d="M337.927 897.885c-13.601 5.416-28.235 10.403-42.432 14.486a488.623 488.623 0 01-28.291 7.15l-.354.177-.159-.066-.289.066.205-.103a232.77 232.77 0 01-14.485-6.525 179.726 179.726 0 01-15.847-8.883c8.641 5.854 101.652-6.302 101.652-6.302z" fill="#121927"/><path d="M411.921 854.354c-.876.933-57.169 61.765-145.519 65.345l.774-.168a453.184 453.184 0 0028.3-7.159 448.366 448.366 0 0042.432-14.486l1.538-.606a322.907 322.907 0 0041.015-19.752 197.775 197.775 0 0018.233-11.922c4.664-3.44 9.084-7.2 13.227-11.252z" fill="#141E30"/><path d="M328.27 599.017c1.792-.289 21.374-14.064 38.723 3.434 12.275 12.373 1.047 20.549 11.554 29.076 9.308 7.558 17.988 24.633 4.572 44.038-22.921 33.139-20.815 24.601-36.837 28.788-28.449 7.454-24.062-8.012-24.062-8.012l6.05-97.324z" fill="#211F36"/><path d="M328.502 597.067c6.387-2.616 13.069-5.115 20.242-5.313a22.059 22.059 0 0110.465 2.07c3.234 1.658 5.84 4.231 7.455 7.359a48.685 48.685 0 014.127 9.301 85.768 85.768 0 012.457 9.742c.676 3.255 1.228 6.511 2.174 9.65a27.55 27.55 0 003.967 8.812 23.849 23.849 0 003.304 3.639 23.431 23.431 0 013.329 4.069 24.772 24.772 0 013.685 9.603c1.056 6.79-.639 13.626-3.39 19.764a74.571 74.571 0 01-11.055 17.009 139.194 139.194 0 01-14.309 14.544c4.9-4.717 9.47-9.731 13.683-15.009a78.252 78.252 0 0010.416-17.021c2.567-6.057 3.967-12.66 2.923-19.031a22.95 22.95 0 00-3.513-8.929 23.169 23.169 0 00-3.107-3.755 25.509 25.509 0 01-3.538-3.872 29.24 29.24 0 01-4.286-9.3c-.909-3.256-1.487-6.546-2.15-9.789-1.228-6.464-2.948-12.859-6.215-18.602-1.419-2.908-3.736-5.34-6.645-6.975a20.69 20.69 0 00-9.826-2.221 45.199 45.199 0 00-10.256 1.291c-3.341.744-6.608 1.953-9.937 2.964zm15.73 63.303a11.404 11.404 0 00-5.282-7.568 24.752 24.752 0 00-8.806-3.537 27.897 27.897 0 00-9.49 0 42.814 42.814 0 00-17.553 6.849 31.023 31.023 0 00-6.908 6.343 24.753 24.753 0 00-5.328 17.458c.106 1.568.342 3.089.518 4.716.171 1.644.219 3.299.142 4.951a28.851 28.851 0 01-2.228 9.631c-2.57 6.142-7.073 11.023-10.81 16.127a19.442 19.442 0 00-3.808 8.429 13.21 13.21 0 00.259 4.609 20.044 20.044 0 001.686 4.386 24.24 24.24 0 012.935 9.254 20.25 20.25 0 01-.165 4.857 39.624 39.624 0 01-1.178 4.715 26.526 26.526 0 00.836-9.513 23.761 23.761 0 00-3.194-8.913 19.492 19.492 0 01-1.886-4.55 14.139 14.139 0 01-.401-4.975 20.552 20.552 0 013.808-9.065c1.827-2.711 3.866-5.211 5.717-7.804a40.274 40.274 0 004.715-8.181 26.644 26.644 0 002.028-9.101c.064-1.574.009-3.15-.165-4.716-.177-1.52-.448-3.171-.566-4.821a27.562 27.562 0 011.179-9.844 25.96 25.96 0 014.715-8.7 32.19 32.19 0 017.309-6.601 38.813 38.813 0 018.747-4.362 42.598 42.598 0 019.502-2.275 28.378 28.378 0 019.773.33 25.17 25.17 0 018.888 3.926 13.722 13.722 0 013.407 3.454 9.496 9.496 0 011.604 4.491z" fill="#2C2A46"/><path d="M346.589 601.297a9.222 9.222 0 00-1.839-4.256 13.364 13.364 0 00-3.313-3.183 24.25 24.25 0 00-8.523-3.537c-2.947-.778-5.894.496-8.582 1.993a77.334 77.334 0 00-7.639 5.328c-2.499 1.886-4.998 3.796-7.71 5.458-2.711 1.662-5.717 2.853-8.452 4.221a15.494 15.494 0 00-3.678 2.487 10.094 10.094 0 00-2.358 3.537 23.574 23.574 0 00-1.108 8.912c.354 6.2.46 12.696-1.32 18.861a25.088 25.088 0 01-4.327 8.582c-1.956 2.57-4.385 4.622-6.33 6.968a16.701 16.701 0 00-3.796 8.122 29.72 29.72 0 000 9.195 85.45 85.45 0 001.945 9.148c.377 1.521.755 3.041 1.002 4.597a11.597 11.597 0 010 4.716 11.58 11.58 0 00-.236-4.633c-.318-1.521-.754-3.03-1.178-4.527a87.96 87.96 0 01-2.358-9.136 29.85 29.85 0 01-.224-9.502 17.773 17.773 0 013.831-8.782c2.004-2.511 4.327-4.609 6.166-7.073a23.522 23.522 0 003.996-8.111 39.158 39.158 0 001.32-9.089v-4.633l-.236-4.715a24.419 24.419 0 011.285-9.596 11.807 11.807 0 012.806-4.15 17.083 17.083 0 014.091-2.723c2.876-1.403 5.776-2.487 8.381-4.09 2.606-1.604 5.14-3.313 7.734-5.117a78.092 78.092 0 017.91-5.198 19.38 19.38 0 014.444-1.828 8.963 8.963 0 014.857 0 24.756 24.756 0 018.594 3.938 11.264 11.264 0 014.845 7.816z" fill="#2C2A46"/><path d="M342.723 722.357c6.543 0 11.847-4.37 11.847-9.761 0-5.39-5.304-9.761-11.847-9.761-6.544 0-11.848 4.371-11.848 9.761 0 5.391 5.304 9.761 11.848 9.761z" fill="#EFB8C2"/><path d="M342.723 722.357c6.543 0 11.847-4.37 11.847-9.761 0-5.39-5.304-9.761-11.847-9.761-6.544 0-11.848 4.371-11.848 9.761 0 5.391 5.304 9.761 11.848 9.761z" fill="#F3C29F" stroke="#fff" stroke-width="1.398" stroke-miterlimit="10"/><path d="M343.677 684.551h-1.921a35.758 35.758 0 01-7.745-.837v22.398a7.787 7.787 0 00.61 2.989 7.783 7.783 0 004.256 4.206c.952.387 1.97.582 2.997.574h1.803a7.807 7.807 0 007.214-4.826 7.802 7.802 0 00.59-2.99v-22.339c-2.564.555-5.18.832-7.804.825z" fill="#F3C29F"/><path d="M334.034 700.062v6.449s1.875-3.195 8.712-3.219c6.837-.023 8.7 3.537 8.7 3.537v-7.757l-17.435-.295.023 1.285z" fill="#E8AA7D"/><path d="M379.904 629.223v36.545c0 16.398-12.189 30.096-28.481 33.444a37.952 37.952 0 01-7.745.79h-1.922a37.26 37.26 0 01-7.745-.802c-16.28-3.359-28.481-17.069-28.481-33.432v-36.545c0-18.861 16.221-34.186 36.226-34.186h1.922c20.017 0 36.226 15.325 36.226 34.186z" fill="#F3C29F"/><path d="M306.425 643.41v16.574a5.63 5.63 0 01-5.54-5.646v-5.282a5.647 5.647 0 015.54-5.646z" fill="#EFB8C2"/><path d="M383.133 659.31v5.282a5.635 5.635 0 01-5.54 5.646v-16.574a5.642 5.642 0 015.54 5.646z" fill="#F3C29F"/><path d="M325.122 635.119c-5.281 7.957 6.943 16.186-3.537 34.434-5.104 8.901-4.314 13.899-1.733 17.436 2.735 3.642 11.011 6.531 14.689 12.354 5.423 8.629 8.169 22.292-5.977 40.789-17.494 22.858-23.318 23.046-29.695 38.053a2.57 2.57 0 01-1.284 1.578c-.31.162-.65.258-.999.282a2.54 2.54 0 01-1.03-.139 36.307 36.307 0 01-10.893-28.599c1.309-17.977-11.599-20.818-10.845-28.375 1.179-11.965 6.342-7.698 16.268-22.893 1.981-3.042 2.735-7.498-5.022-13.805-7.757-6.307-9.914-22.304-2.9-27.785 7.015-5.482 9.643-14.241 5.635-20.701-1.485-2.358-10.951-16.693 9.349-27.998 3.595-1.992 11.246-8.594 15.69-14.712 4.091-5.647 23.955-10.916 33.232-3.065 9.278 7.851 39.421 18.39 27.739 41.024-6.684 12.979-39.999-10.928-48.687 2.122z" fill="#2C2A46"/><path d="M370.509 598.963c-4.574-3.289-4.645-11.788-24.438-7.073-11.588 2.865 34.093 46.765 33.833 62.326 0 0 14.488-11.788 9.007-27.267-3.301-9.36-3.608-17.341-18.402-27.986z" fill="#2C2A46"/><path d="M389.566 627.82a20.722 20.722 0 00-.675-6.167 23.577 23.577 0 00-2.231-5.636 33.689 33.689 0 00-7.907-9.294 94.476 94.476 0 01-4.83-4.076c-1.585-1.429-3.018-2.881-5.012-3.419a53.828 53.828 0 00-6.134-1.27l-6.311-1.091 6.303.616c2.118.189 4.222.518 6.296.985a8.464 8.464 0 012.992 1.361c.9.634 1.69 1.331 2.503 2.025a98.68 98.68 0 004.936 3.894 24.857 24.857 0 018.707 9.478 16.86 16.86 0 011.363 12.594z" fill="#2C2A46"/><path d="M400.5 142.279H270.317c-6.145 0-11.126 4.981-11.126 11.125v85.498" stroke="#D2DFE6" stroke-width="7.092" stroke-linecap="round" stroke-linejoin="round" stroke-dasharray="3.71 14.83"/><path d="M259 272v137" stroke="#D2DFE6" stroke-width="7.092" stroke-linecap="round" stroke-linejoin="round" stroke-dasharray="3.19 12.78"/><circle r="48.312" transform="matrix(-1 0 0 1 445.311 130.312)" fill="#4C9AFF"/><path fill-rule="evenodd" clip-rule="evenodd" d="M440.42 112.375a7.213 7.213 0 019.104.897 7.21 7.21 0 11-9.104-.897zm9.889-2.81a10.596 10.596 0 00-13.371 1.317 10.59 10.59 0 009.553 17.874 10.582 10.582 0 008.32-8.32 10.59 10.59 0 00-4.502-10.871zm4.57 43.434h-20.908a6.253 6.253 0 01-4.436-1.827 6.237 6.237 0 01-1.828-4.436 15.028 15.028 0 0115.005-15.005h3.425a15.027 15.027 0 0115.006 15.005 6.234 6.234 0 01-1.828 4.436 6.252 6.252 0 01-4.436 1.827zm-.528-14.477a11.648 11.648 0 00-8.214-3.412h-3.425a11.65 11.65 0 00-11.625 11.626 2.882 2.882 0 002.884 2.884h20.908a2.883 2.883 0 002.884-2.884 11.648 11.648 0 00-3.412-8.214z" fill="#fff"/><g filter="url(#filter0_d)"><rect width="210.089" height="81.396" rx="8.8" transform="matrix(-1 0 0 1 377.089 393)" fill="#F8FBFB"/></g><circle cx="197.591" cy="433.975" r="8.994" fill="#00C6D7"/><path d="M222.575 433.975h133.917" stroke="#8CA0B3" stroke-width="13.199" stroke-linecap="round"/><g filter="url(#filter1_d)"><rect width="210.089" height="81.396" rx="8.8" transform="matrix(-1 0 0 1 377.089 486.495)" fill="#F8FBFB"/></g><circle cx="197.591" cy="527.916" r="8.994" fill="#00C6D7"/><path d="M222.576 527.916h133.916" stroke="#8CA0B3" stroke-width="13.199" stroke-linecap="round"/><circle r="28.366" transform="matrix(-1 0 0 1 259.191 263.722)" fill="#FB5A8B"/><path d="M246.845 255.023a3.958 3.958 0 012.769-1.161h19.154a3.96 3.96 0 012.769 1.161 3.827 3.827 0 011.121 2.702 5.59 5.59 0 01-1.486 3.742l-8.104 8.699c-.308.34-.476.784-.473 1.243l-.257 3.957a2.223 2.223 0 01-1.345 2.092 2.214 2.214 0 01-.857.178 1.077 1.077 0 01-.499-.135l-2.432-1.351a3.757 3.757 0 01-2.066-3.418v-1.351c0-.448-.175-.879-.487-1.202l-7.416-8.685a5.58 5.58 0 01-1.553-3.755 3.835 3.835 0 011.162-2.716zm9.28 13.778a3.732 3.732 0 01.999 2.553v1.351a1.783 1.783 0 001.027 1.581l2.161 1.242a.5.5 0 000-.243l.27-3.958a3.728 3.728 0 011-2.553l7.416-7.915h-8.862a1.014 1.014 0 010-2.026h10.293c.121-.358.189-.731.203-1.108 0-.476-.19-.933-.527-1.27a1.885 1.885 0 00-1.351-.567h-19.14a1.88 1.88 0 00-1.351.567 1.801 1.801 0 00-.527 1.27c.014.377.082.75.203 1.108h4.498a1.011 1.011 0 01.716 1.729c-.19.19-.447.297-.716.297h-3.107l6.795 7.942z" fill="#fff"/><g filter="url(#filter2_d)"><path d="M631.559 321.96c0-7.116-5.769-12.884-12.885-12.884h-240.79c-7.116 0-12.884 5.768-12.884 12.884v48.149a2.577 2.577 0 002.577 2.577h251.097c7.116 0 12.885-5.768 12.885-12.884V321.96z" fill="#fff"/></g><circle r="34.456" transform="matrix(-1 0 0 1 411.636 322.456)" fill="#4C9AFF"/><path d="M478.61 333.001h127.6m-127.6 15.902h86.13" stroke="#D2DFE6" stroke-width="8.059" stroke-linecap="round"/><path fill-rule="evenodd" clip-rule="evenodd" d="M409.217 309.408a5.075 5.075 0 017.041 7.041 5.076 5.076 0 11-7.041-7.041zm6.963-1.979a7.459 7.459 0 00-11.599 6.2 7.456 7.456 0 1011.599-6.2zm3.218 30.583h-14.722a4.393 4.393 0 01-4.079-2.72 4.397 4.397 0 01-.331-1.691 10.584 10.584 0 0110.565-10.565h2.412a10.584 10.584 0 0110.565 10.565 4.397 4.397 0 01-1.287 3.124 4.394 4.394 0 01-3.123 1.287zm-.372-10.194a8.201 8.201 0 00-5.783-2.402h-2.412a8.201 8.201 0 00-8.185 8.185 2.027 2.027 0 002.03 2.031h14.722a2.032 2.032 0 002.03-2.031 8.197 8.197 0 00-2.402-5.783z" fill="#fff"/></g><defs><filter id="filter0_d" x="153.8" y="388.6" width="236.488" height="107.794" filterUnits="userSpaceOnUse" color-interpolation-filters="sRGB"><feFlood flood-opacity="0" result="BackgroundImageFix"/><feColorMatrix in="SourceAlpha" values="0 0 0 0 0 0 0 0 0 0 0 0 0 0 0 0 0 0 127 0"/><feOffset dy="8.8"/><feGaussianBlur stdDeviation="6.6"/><feColorMatrix values="0 0 0 0 0.374547 0 0 0 0 0.481553 0 0 0 0 0.601935 0 0 0 0.2 0"/><feBlend in2="BackgroundImageFix" result="effect1_dropShadow"/><feBlend in="SourceGraphic" in2="effect1_dropShadow" result="shape"/></filter><filter id="filter1_d" x="153.8" y="482.095" width="236.488" height="107.794" filterUnits="userSpaceOnUse" color-interpolation-filters="sRGB"><feFlood flood-opacity="0" result="BackgroundImageFix"/><feColorMatrix in="SourceAlpha" values="0 0 0 0 0 0 0 0 0 0 0 0 0 0 0 0 0 0 127 0"/><feOffset dy="8.8"/><feGaussianBlur stdDeviation="6.6"/><feColorMatrix values="0 0 0 0 0.374547 0 0 0 0 0.481553 0 0 0 0 0.601935 0 0 0 0.2 0"/><feBlend in2="BackgroundImageFix" result="effect1_dropShadow"/><feBlend in="SourceGraphic" in2="effect1_dropShadow" result="shape"/></filter><filter id="filter2_d" x="353.711" y="299.668" width="289.137" height="86.189" filterUnits="userSpaceOnUse" color-interpolation-filters="sRGB"><feFlood flood-opacity="0" result="BackgroundImageFix"/><feColorMatrix in="SourceAlpha" values="0 0 0 0 0 0 0 0 0 0 0 0 0 0 0 0 0 0 127 0"/><feOffset dy="1.882"/><feGaussianBlur stdDeviation="5.645"/><feColorMatrix values="0 0 0 0 0.374547 0 0 0 0 0.481553 0 0 0 0 0.601935 0 0 0 0.15 0"/><feBlend in2="BackgroundImageFix" result="effect1_dropShadow"/><feBlend in="SourceGraphic" in2="effect1_dropShadow" result="shape"/></filter><radialGradient id="paint0_radial" cx="0" cy="0" r="1" gradientUnits="userSpaceOnUse" gradientTransform="translate(541.138 196.837) scale(3.70297)"><stop stop-color="#24292D"/><stop offset="1"/></radialGradient><radialGradient id="paint2_radial" cx="0" cy="0" r="1" gradientUnits="userSpaceOnUse" gradientTransform="translate(541.138 196.837) scale(3.419)"><stop/><stop offset=".18" stop-color="#1A2330"/><stop offset=".49" stop-color="#1A2330"/><stop offset=".56" stop-color="#24292D"/><stop offset=".62" stop-color="#1A2330"/><stop offset=".75" stop-color="#1A2330"/><stop offset=".77" stop-color="#1A2330"/><stop offset=".87" stop-color="#0E131A"/><stop offset=".99"/></radialGradient><linearGradient id="paint1_linear" x1="537.343" y1="196.836" x2="544.942" y2="196.836" gradientUnits="userSpaceOnUse"><stop stop-color="#59595C"/><stop offset=".24" stop-color="#59595C"/><stop offset=".6" stop-color="#494C4F"/><stop offset="1" stop-color="#24292D"/></linearGradient><linearGradient id="paint3_linear" x1="337.926" y1="901.205" x2="337.926" y2="818.14" gradientUnits="userSpaceOnUse"><stop offset=".21" stop-color="#F5F8F9"/><stop offset="1" stop-color="#fff"/></linearGradient><clipPath id="clip0"><path fill="#fff" d="M0 0h1080v1080H0z"/></clipPath></defs></svg>